<?xml version="1.0" encoding="UTF-8"?>
<!DOCTYPE svg PUBLIC "-//W3C//DTD SVG 1.1//EN" "http://www.w3.org/Graphics/SVG/1.1/DTD/svg11.dtd">
<svg xmlns="http://www.w3.org/2000/svg" version="1.1" width="480px" height="480px" style="shape-rendering:geometricPrecision; text-rendering:geometricPrecision; image-rendering:optimizeQuality; fill-rule:evenodd; clip-rule:evenodd" xmlns:xlink="http://www.w3.org/1999/xlink">
<g><path style="opacity:0.999" fill="#558336" d="M 392.5,261.5 C 392.167,261.5 391.833,261.5 391.5,261.5C 333.5,261.5 275.5,261.5 217.5,261.5C 217.5,275.833 217.5,290.167 217.5,304.5C 261.167,304.5 304.833,304.5 348.5,304.5C 348.5,305.167 348.833,305.5 349.5,305.5C 349.5,319.833 349.5,334.167 349.5,348.5C 349.167,348.5 348.833,348.5 348.5,348.5C 246.833,348.5 145.167,348.5 43.5,348.5C 43.1667,348.5 42.8333,348.5 42.5,348.5C 42.5,319.167 42.5,289.833 42.5,260.5C 57.1667,260.5 71.8333,260.5 86.5,260.5C 86.5,231.5 86.5,202.5 86.5,173.5C 100.833,173.5 115.167,173.5 129.5,173.5C 129.5,158.833 129.5,144.167 129.5,129.5C 144.167,129.5 158.833,129.5 173.5,129.5C 173.5,115.167 173.5,100.833 173.5,86.5C 202.833,86.5 232.167,86.5 261.5,86.5C 261.5,100.833 261.5,115.167 261.5,129.5C 275.833,129.5 290.167,129.5 304.5,129.5C 304.5,115.167 304.5,100.833 304.5,86.5C 333.833,86.5 363.167,86.5 392.5,86.5C 392.5,100.833 392.5,115.167 392.5,129.5C 407.167,129.5 421.833,129.5 436.5,129.5C 436.5,159.167 436.5,188.833 436.5,218.5C 421.833,218.5 407.167,218.5 392.5,218.5C 392.5,232.833 392.5,247.167 392.5,261.5 Z"/></g>
<g><path style="opacity:1" fill="#fefffe" d="M 217.5,174.5 C 217.5,188.833 217.5,203.167 217.5,217.5C 203.167,217.5 188.833,217.5 174.5,217.5C 174.5,203.167 174.5,188.833 174.5,174.5C 188.833,174.5 203.167,174.5 217.5,174.5 Z"/></g>
<g><path style="opacity:1" fill="#010100" d="M 217.5,174.5 C 232.167,174.5 246.833,174.5 261.5,174.5C 261.5,188.833 261.5,203.167 261.5,217.5C 246.833,217.5 232.167,217.5 217.5,217.5C 217.5,203.167 217.5,188.833 217.5,174.5 Z"/></g>
<g><path style="opacity:1" fill="#fefffe" d="M 261.5,174.5 C 290.5,174.5 319.5,174.5 348.5,174.5C 348.5,188.833 348.5,203.167 348.5,217.5C 319.5,217.5 290.5,217.5 261.5,217.5C 261.5,203.167 261.5,188.833 261.5,174.5 Z"/></g>
<g><path style="opacity:1" fill="#010200" d="M 348.5,174.5 C 363.167,174.5 377.833,174.5 392.5,174.5C 392.5,188.833 392.5,203.167 392.5,217.5C 377.833,217.5 363.167,217.5 348.5,217.5C 348.5,203.167 348.5,188.833 348.5,174.5 Z"/></g>
<g><path style="opacity:1" fill="#984e34" d="M 391.5,261.5 C 391.5,275.833 391.5,290.167 391.5,304.5C 377.167,304.5 362.833,304.5 348.5,304.5C 304.833,304.5 261.167,304.5 217.5,304.5C 217.5,290.167 217.5,275.833 217.5,261.5C 275.5,261.5 333.5,261.5 391.5,261.5 Z"/></g>
<g><path style="opacity:0.702" fill="#845e35" d="M 391.5,261.5 C 391.833,261.5 392.167,261.5 392.5,261.5C 392.5,276.167 392.5,290.833 392.5,305.5C 378.167,305.5 363.833,305.5 349.5,305.5C 348.833,305.5 348.5,305.167 348.5,304.5C 362.833,304.5 377.167,304.5 391.5,304.5C 391.5,290.167 391.5,275.833 391.5,261.5 Z"/></g>
<g><path style="opacity:0.925" fill="#3254c7" d="M 42.5,348.5 C 42.8333,348.5 43.1667,348.5 43.5,348.5C 43.5,362.833 43.5,377.167 43.5,391.5C 145.167,391.5 246.833,391.5 348.5,391.5C 348.5,377.167 348.5,362.833 348.5,348.5C 348.833,348.5 349.167,348.5 349.5,348.5C 349.5,363.167 349.5,377.833 349.5,392.5C 247.167,392.5 144.833,392.5 42.5,392.5C 42.5,377.833 42.5,363.167 42.5,348.5 Z"/></g>
<g><path style="opacity:1" fill="#2343f8" d="M 43.5,348.5 C 145.167,348.5 246.833,348.5 348.5,348.5C 348.5,362.833 348.5,377.167 348.5,391.5C 246.833,391.5 145.167,391.5 43.5,391.5C 43.5,377.167 43.5,362.833 43.5,348.5 Z"/></g>
</svg>
